<svg width="325" height="305" viewBox="0 0 325 305" fill="none" xmlns="http://www.w3.org/2000/svg">
<path d="M86 300L263.052 300L319 182L263.052 50L86 50" stroke="white" stroke-width="10"/>
<path d="M99 285H254.775L304 181.16L254.775 65L99 65" stroke="white" stroke-width="10"/>
<path d="M111 270H245.498L288 180.32L245.498 80L111 80" stroke="white" stroke-width="10"/>
<path d="M122 255L235.222 255L271 179.48L235.222 95L122 95" stroke="white" stroke-width="10"/>
<line x1="269.004" y1="177.5" x2="211.996" y2="177.5" stroke="white" stroke-width="10"/>
<line x1="263" y1="193" x2="212" y2="193" stroke="white" stroke-width="10"/>
<line x1="263" y1="163" x2="212" y2="163" stroke="white" stroke-width="10"/>
<path d="M239 5H61.9483L6 123L61.9483 255H239" stroke="white" stroke-width="10"/>
<path d="M226 20H70.2249L21 123.84L70.2249 240H226" stroke="white" stroke-width="10"/>
<path d="M214 35H79.5015L37 124.68L79.5015 225H214" stroke="white" stroke-width="10"/>
<path d="M203 50H89.7781L54 125.52L89.7781 210H203" stroke="white" stroke-width="10"/>
<path d="M217 158V178V198" stroke="white" stroke-width="10"/>
<line x1="82.3499" y1="301.583" x2="126.35" y2="254.583" stroke="white" stroke-width="10"/>
<line x1="199.347" y1="49.5856" x2="242.347" y2="3.58558" stroke="white" stroke-width="10"/>
<line x1="89.7571" y1="55.7009" x2="125.758" y2="96.7001" stroke="white" stroke-width="10"/>
<line x1="199.79" y1="208.739" x2="236.79" y2="251.739" stroke="white" stroke-width="10"/>
</svg>
